<svg xmlns="http://www.w3.org/2000/svg" xmlns:xlink="http://www.w3.org/1999/xlink" xmlns:lucid="lucid" width="1500" height="916.58"><g transform="translate(-240 -207.42238802180356)" lucid:page-tab-id="0_0"><path d="M0 0h1760v1360H0z" fill="#fff"/><path d="M540 235.42a8 8 0 0 1 8-8h836.75a8 8 0 0 1 8 8v25.16a8 8 0 0 1-8 8H548a8 8 0 0 1-8-8z" stroke="#000" stroke-opacity="0" stroke-width="2" fill="#fff" fill-opacity="0"/><use xlink:href="#a" transform="matrix(1,0,0,1,544,231.42238802180356) translate(251.25012345679013 25.782777777777778)"/><use xlink:href="#b" transform="matrix(1,0,0,1,544,231.42238802180356) translate(313.74641975308646 25.782777777777778)"/><use xlink:href="#c" transform="matrix(1,0,0,1,544,231.42238802180356) translate(444.71185185185186 25.782777777777778)"/><use xlink:href="#d" transform="matrix(1,0,0,1,544,231.42238802180356) translate(482.5155555555556 25.782777777777778)"/><path d="M715.5 267.24h505.85M715.5 267.24h-1M1221.32 267.24h1.03" stroke="#a9afb8" stroke-width="2" fill="none"/><path d="M540 276.58a8 8 0 0 1 8-8h837.7a8 8 0 0 1 8 8v2.84a8 8 0 0 1-8 8H548a8 8 0 0 1-8-8z" stroke="#000" stroke-opacity="0" stroke-width="2" fill="#fff" fill-opacity="0"/><use xlink:href="#e" transform="matrix(1,0,0,1,544,272.5776119784695) translate(292.7011008230453 14.917037037037037)"/><use xlink:href="#f" transform="matrix(1,0,0,1,544,272.5776119784695) translate(355.5433847736626 14.917037037037037)"/><use xlink:href="#g" transform="matrix(1,0,0,1,544,272.5776119784695) translate(409.03793209876545 14.917037037037037)"/><use xlink:href="#h" transform="matrix(1,0,0,1,544,272.5776119784695) translate(421.48741769547325 14.917037037037037)"/><use xlink:href="#i" transform="matrix(1,0,0,1,544,272.5776119784695) translate(500.4333024691358 14.917037037037037)"/><use xlink:href="#j" transform="matrix(1,0,0,1,544,272.5776119784695) translate(525.9271296296297 14.917037037037037)"/><path d="M260 468a8 8 0 0 1 8-8h324.48a8 8 0 0 1 8 8v248a8 8 0 0 1-8 8H268a8 8 0 0 1-8-8z" fill="#fff"/><path d="M260 468a8 8 0 0 1 8-8h324.48a8 8 0 0 1 8 8v248a8 8 0 0 1-8 8H268a8 8 0 0 1-8-8zM260 500h340.48M320 500v224M495.33 500v224" stroke="#3a414a" fill="none"/><use xlink:href="#k" transform="matrix(1,0,0,1,270,460) translate(0 23.6)"/><use xlink:href="#l" transform="matrix(1,0,0,1,265,502.5) translate(13 17.1)"/><use xlink:href="#m" transform="matrix(1,0,0,1,325,502.5) translate(76.025 17.1)"/><use xlink:href="#n" transform="matrix(1,0,0,1,500.33214019525667,502.5) translate(39.025 17.1)"/><use xlink:href="#o" transform="matrix(1,0,0,1,265,534.5) translate(9.5 17.1)"/><use xlink:href="#p" transform="matrix(1,0,0,1,325,534.5) translate(55.074999999999996 17.1)"/><use xlink:href="#q" transform="matrix(1,0,0,1,500.33214019525667,534.5) translate(24.724999999999998 17.1)"/><use xlink:href="#r" transform="matrix(1,0,0,1,265,566.5) translate(9.5 17.1)"/><use xlink:href="#s" transform="matrix(1,0,0,1,325,566.5) translate(26.099999999999994 17.1)"/><use xlink:href="#t" transform="matrix(1,0,0,1,500.33214019525667,566.5) translate(33.55 17.1)"/><use xlink:href="#o" transform="matrix(1,0,0,1,265,598.5) translate(9.5 17.1)"/><use xlink:href="#u" transform="matrix(1,0,0,1,325,598.5) translate(49.05 17.1)"/><use xlink:href="#q" transform="matrix(1,0,0,1,500.33214019525667,598.5) translate(24.724999999999998 17.1)"/><use xlink:href="#o" transform="matrix(1,0,0,1,265,630.5) translate(9.5 17.1)"/><use xlink:href="#v" transform="matrix(1,0,0,1,325,630.5) translate(44.05 17.1)"/><use xlink:href="#q" transform="matrix(1,0,0,1,500.33214019525667,630.5) translate(24.724999999999998 17.1)"/><use xlink:href="#o" transform="matrix(1,0,0,1,265,662.5) translate(9.5 17.1)"/><use xlink:href="#w" transform="matrix(1,0,0,1,325,662.5) translate(17.049999999999997 17.1)"/><use xlink:href="#x" transform="matrix(1,0,0,1,500.33214019525667,662.5) translate(33.55 17.1)"/><use xlink:href="#o" transform="matrix(1,0,0,1,265,694.5) translate(9.5 17.1)"/><use xlink:href="#y" transform="matrix(1,0,0,1,325,694.5) translate(51.525 17.1)"/><use xlink:href="#z" transform="matrix(1,0,0,1,500.33214019525667,694.5) translate(4.599999999999994 17.1)"/><path d="M780 376a8 8 0 0 1 8-8h324.48a8 8 0 0 1 8 8v216a8 8 0 0 1-8 8H788a8 8 0 0 1-8-8z" fill="#fff"/><path d="M780 376a8 8 0 0 1 8-8h324.48a8 8 0 0 1 8 8v216a8 8 0 0 1-8 8H788a8 8 0 0 1-8-8zM780 408h340.48M840 408v192M1015.48 408v192" stroke="#3a414a" fill="none"/><use xlink:href="#A" transform="matrix(1,0,0,1,790,368.000000000091) translate(0 23.6)"/><use xlink:href="#l" transform="matrix(1,0,0,1,785,410.500000000091) translate(13 17.1)"/><use xlink:href="#B" transform="matrix(1,0,0,1,845,410.500000000091) translate(76.025 17.1)"/><use xlink:href="#C" transform="matrix(1,0,0,1,1020.4786929805996,410.500000000091) translate(38.525 17.1)"/><use xlink:href="#o" transform="matrix(1,0,0,1,785,442.500000000091) translate(9.5 17.1)"/><use xlink:href="#D" transform="matrix(1,0,0,1,845,442.500000000091) translate(60.525 17.1)"/><use xlink:href="#z" transform="matrix(1,0,0,1,1020.4786929805996,442.500000000091) translate(4.099999999999994 17.1)"/><use xlink:href="#o" transform="matrix(1,0,0,1,785,474.500000000091) translate(9.5 17.1)"/><use xlink:href="#E" transform="matrix(1,0,0,1,845,474.500000000091) translate(69.525 17.1)"/><use xlink:href="#x" transform="matrix(1,0,0,1,1020.4786929805996,474.500000000091) translate(33.05 17.1)"/><use xlink:href="#o" transform="matrix(1,0,0,1,785,506.500000000091) translate(9.5 17.1)"/><use xlink:href="#F" transform="matrix(1,0,0,1,845,506.500000000091) translate(41.5 17.1)"/><use xlink:href="#q" transform="matrix(1,0,0,1,1020.4786929805996,506.500000000091) translate(24.224999999999998 17.1)"/><use xlink:href="#o" transform="matrix(1,0,0,1,785,538.500000000091) translate(9.5 17.1)"/><use xlink:href="#G" transform="matrix(1,0,0,1,845,538.500000000091) translate(49.55 17.1)"/><use xlink:href="#z" transform="matrix(1,0,0,1,1020.4786929805996,538.500000000091) translate(4.099999999999994 17.1)"/><use xlink:href="#H" transform="matrix(1,0,0,1,785,570.500000000091) translate(13.524999999999999 17.1)"/><use xlink:href="#I" transform="matrix(1,0,0,1,845,570.500000000091) translate(15.574999999999989 17.1)"/><use xlink:href="#J" transform="matrix(1,0,0,1,1020.4786929805996,570.500000000091) translate(33.05 17.1)"/><path d="M1260 488a8 8 0 0 1 8-8h304a8 8 0 0 1 8 8v88a8 8 0 0 1-8 8h-304a8 8 0 0 1-8-8z" fill="#fff"/><path d="M1260 488a8 8 0 0 1 8-8h304a8 8 0 0 1 8 8v88a8 8 0 0 1-8 8h-304a8 8 0 0 1-8-8zM1260 520h320M1320 520v64M1473 520v64" stroke="#3a414a" fill="none"/><use xlink:href="#K" transform="matrix(1,0,0,1,1270,480) translate(116.05 23.6)"/><use xlink:href="#l" transform="matrix(1,0,0,1,1265,522.5) translate(13 17.1)"/><use xlink:href="#I" transform="matrix(1,0,0,1,1325,522.5) translate(4.074999999999989 17.1)"/><use xlink:href="#J" transform="matrix(1,0,0,1,1478,522.5) translate(34.05 17.1)"/><use xlink:href="#o" transform="matrix(1,0,0,1,1265,554.5) translate(9.5 17.1)"/><use xlink:href="#L" transform="matrix(1,0,0,1,1325,554.5) translate(12.049999999999997 17.1)"/><use xlink:href="#M" transform="matrix(1,0,0,1,1478,554.5) translate(5.274999999999999 17.1)"/><path d="M1140.98 583.98H1168a12 12 0 0 0 12-12V512a12 12 0 0 1 12-12h47.5" stroke="#3a414a" fill="none"/><path d="M1140.98 593.98v-20M1120.98 583.98h20" stroke="#3a414a" fill="#fff"/><path d="M1259.3 510l-20-10 20-10" stroke="#3a414a" fill="#fff" fill-opacity="0"/><path d="M1259.3 500h-20M1239.3 490v20" stroke="#3a414a" fill="#fff"/><path d="M780 848a8 8 0 0 1 8-8h324.48a8 8 0 0 1 8 8v248a8 8 0 0 1-8 8H788a8 8 0 0 1-8-8z" fill="#fff"/><path d="M780 848a8 8 0 0 1 8-8h324.48a8 8 0 0 1 8 8v248a8 8 0 0 1-8 8H788a8 8 0 0 1-8-8zM780 880h340.48M840 880v224M1006.48 880v224" stroke="#3a414a" fill="none"/><use xlink:href="#N" transform="matrix(1,0,0,1,790,840) translate(137.525 23.6)"/><use xlink:href="#l" transform="matrix(1,0,0,1,785,882.5) translate(13 17.1)"/><use xlink:href="#O" transform="matrix(1,0,0,1,845,882.5) translate(10.625 17.1)"/><use xlink:href="#J" transform="matrix(1,0,0,1,1011.4786929805996,882.5) translate(37.55 17.1)"/><use xlink:href="#o" transform="matrix(1,0,0,1,785,914.5) translate(9.5 17.1)"/><use xlink:href="#D" transform="matrix(1,0,0,1,845,914.5) translate(56.025 17.1)"/><use xlink:href="#P" transform="matrix(1,0,0,1,1011.4786929805996,914.5) translate(15.25 17.1)"/><use xlink:href="#o" transform="matrix(1,0,0,1,785,946.5) translate(9.5 17.1)"/><use xlink:href="#Q" transform="matrix(1,0,0,1,845,946.5) translate(41.025 17.1)"/><use xlink:href="#M" transform="matrix(1,0,0,1,1011.4786929805996,946.5) translate(8.774999999999999 17.1)"/><use xlink:href="#o" transform="matrix(1,0,0,1,785,978.5) translate(9.5 17.1)"/><use xlink:href="#R" transform="matrix(1,0,0,1,845,978.5) translate(37 17.1)"/><use xlink:href="#S" transform="matrix(1,0,0,1,1011.4786929805996,978.5) translate(28.724999999999998 17.1)"/><use xlink:href="#H" transform="matrix(1,0,0,1,785,1010.5) translate(13.524999999999999 17.1)"/><use xlink:href="#I" transform="matrix(1,0,0,1,845,1010.5) translate(11.074999999999989 17.1)"/><use xlink:href="#J" transform="matrix(1,0,0,1,1011.4786929805996,1010.5) translate(37.55 17.1)"/><use xlink:href="#o" transform="matrix(1,0,0,1,785,1042.5) translate(9.5 17.1)"/><use xlink:href="#T" transform="matrix(1,0,0,1,845,1042.5) translate(56.05 17.1)"/><use xlink:href="#U" transform="matrix(1,0,0,1,1011.4786929805996,1042.5) translate(23.724999999999998 17.1)"/><use xlink:href="#o" transform="matrix(1,0,0,1,785,1074.5) translate(9.5 17.1)"/><use xlink:href="#V" transform="matrix(1,0,0,1,845,1074.5) translate(59 17.1)"/><use xlink:href="#U" transform="matrix(1,0,0,1,1011.4786929805996,1074.5) translate(23.724999999999998 17.1)"/><path d="M1140.95 1024h27.28a12 12 0 0 0 12-12V512a12 12 0 0 1 12-12h47.87" stroke="#3a414a" fill="none"/><path d="M1140.95 1034v-20M1120.95 1024h20" stroke="#3a414a" fill="#fff"/><path d="M1259.3 510l-20-10 20-10" stroke="#3a414a" fill="#fff" fill-opacity="0"/><path d="M1259.3 500h-20" stroke="#3a414a" fill="#fff"/><path d="M1380 748a8 8 0 0 1 8-8h324a8 8 0 0 1 8 8v120a8 8 0 0 1-8 8h-324a8 8 0 0 1-8-8z" fill="#fff"/><path d="M1380 748a8 8 0 0 1 8-8h324a8 8 0 0 1 8 8v120a8 8 0 0 1-8 8h-324a8 8 0 0 1-8-8zM1380 780h340M1440 780v96M1619 780v96" stroke="#3a414a" fill="none"/><use xlink:href="#W" transform="matrix(1,0,0,1,1390,740) translate(117.525 23.6)"/><use xlink:href="#X" transform="matrix(1,0,0,1,1385,782.5) translate(-0.9750000000000014 17.1)"/><use xlink:href="#O" transform="matrix(1,0,0,1,1445,782.5) translate(16.625 17.1)"/><use xlink:href="#J" transform="matrix(1,0,0,1,1624,782.5) translate(31.049999999999997 17.1)"/><use xlink:href="#H" transform="matrix(1,0,0,1,1385,814.5) translate(13.524999999999999 17.1)"/><use xlink:href="#y" transform="matrix(1,0,0,1,1445,814.5) translate(53.025 17.1)"/><use xlink:href="#z" transform="matrix(1,0,0,1,1624,814.5) translate(2.0999999999999943 17.1)"/><use xlink:href="#o" transform="matrix(1,0,0,1,1385,846.5) translate(9.5 17.1)"/><use xlink:href="#Y" transform="matrix(1,0,0,1,1445,846.5) translate(67 17.1)"/><use xlink:href="#S" transform="matrix(1,0,0,1,1624,846.5) translate(22.224999999999998 17.1)"/><path d="M620.9 480H718a12 12 0 0 1 12 12v355.67a12 12 0 0 0 12 12h17.5" stroke="#3a414a" fill="none"/><path d="M601.1 470l20 10-20 10" stroke="#3a414a" fill="#fff" fill-opacity="0"/><path d="M601.1 480h20M621.1 490v-20" stroke="#3a414a" fill="#fff"/><path d="M779.28 869.67l-20-10 20-10" stroke="#3a414a" fill="#fff" fill-opacity="0"/><path d="M779.28 859.67h-20M759.28 849.67v20" stroke="#3a414a" fill="#fff"/><path d="M759.5 387.72h-57.3a12 12 0 0 0-12 12V468a12 12 0 0 1-12 12h-57.9" stroke="#3a414a" fill="none"/><path d="M769.5 377.72v20M779.5 387.72h-20M759.5 377.72v20" stroke="#3a414a" fill="#fff"/><path d="M601.1 470l20 10-20 10" stroke="#3a414a" fill="#fff" fill-opacity="0"/><path d="M601.1 480h20" stroke="#3a414a" fill="#fff"/><path d="M1140.9 859.73H1258a12 12 0 0 0 12-12v-75.87a12 12 0 0 1 12-12h77.5" stroke="#3a414a" fill="none"/><path d="M1130.9 869.73v-20M1120.9 859.73h20M1140.9 869.73v-20" stroke="#3a414a" fill="#fff"/><path d="M1379.3 769.86l-20-10 20-10" stroke="#3a414a" fill="#fff" fill-opacity="0"/><path d="M1379.3 759.86h-20M1359.3 749.86v20" stroke="#3a414a" fill="#fff"/><path d="M1140.9 895.8H1288a12 12 0 0 0 12-12v-75.83a12 12 0 0 1 12-12h47.54" stroke="#3a414a" fill="none"/><path d="M1130.9 905.8v-20M1120.9 895.8h20M1140.9 905.8v-20M1369.54 785.97v20M1379.54 795.97h-20M1359.54 785.97v20" stroke="#3a414a" fill="#fff"/><path d="M620.98 708H1208a12 12 0 0 1 12 12v96.05a12 12 0 0 0 12 12h127.57" stroke="#3a414a" fill="none"/><path d="M610.98 718v-20M600.98 708h20M620.98 718v-20M1369.57 818.05v20M1379.57 828.05h-20M1359.57 818.05v20" stroke="#3a414a" fill="#fff"/><path d="M759.52 895.8h-57.3a12 12 0 0 1-12-12V592a12 12 0 0 0-12-12h-57.3" stroke="#3a414a" fill="none"/><path d="M769.52 885.8v20M779.52 895.8h-20M759.52 885.8v20M610.92 590v-20M600.92 580h20M620.92 590v-20" stroke="#3a414a" fill="#fff"/><defs><path fill="#a9afb8" d="M24-248c120-7 223 5 221 122C244-46 201 0 124 0H24v-248zM76-40c74 7 117-18 117-86 0-67-45-88-117-82v168" id="Z"/><path fill="#a9afb8" d="M24 0v-248h195v40H76v63h132v40H76v65h150V0H24" id="aa"/><path fill="#a9afb8" d="M240-174c0 40-23 61-54 70L253 0h-59l-57-94H76V0H24v-248c93 4 217-23 216 74zM76-134c48-2 112 12 112-38 0-48-66-32-112-35v73" id="ab"/><g id="a"><use transform="matrix(0.0728395061728395,0,0,0.0728395061728395,0,0)" xlink:href="#Z"/><use transform="matrix(0.0728395061728395,0,0,0.0728395061728395,18.86543209876543,0)" xlink:href="#aa"/><use transform="matrix(0.0728395061728395,0,0,0.0728395061728395,36.34691358024691,0)" xlink:href="#ab"/></g><path fill="#a9afb8" d="M199 0l-22-63H83L61 0H9l90-248h61L250 0h-51zm-33-102l-36-108c-10 38-24 72-36 108h72" id="ac"/><path fill="#a9afb8" d="M190-63c-7 42-38 67-86 67-59 0-84-38-90-98-12-110 154-137 174-36l-49 2c-2-19-15-32-35-32-30 0-35 28-38 64-6 74 65 87 74 30" id="ad"/><path fill="#a9afb8" d="M133-34C117-15 103 5 69 4 32 3 11-16 11-54c-1-60 55-63 116-61 1-26-3-47-28-47-18 1-26 9-28 27l-52-2c7-38 36-58 82-57s74 22 75 68l1 82c-1 14 12 18 25 15v27c-30 8-71 5-69-32zm-48 3c29 0 43-24 42-57-32 0-66-3-65 30 0 17 8 27 23 27" id="ae"/><path fill="#a9afb8" d="M88-194c31-1 46 15 58 34l-1-101h50l1 261h-48c-2-10 0-23-3-31C134-8 116 4 84 4 32 4 16-41 15-95c0-56 19-97 73-99zm17 164c33 0 40-30 41-66 1-37-9-64-41-64s-38 30-39 65c0 43 13 65 39 65" id="af"/><path fill="#a9afb8" d="M185-48c-13 30-37 53-82 52C43 2 14-33 14-96s30-98 90-98c62 0 83 45 84 108H66c0 31 8 55 39 56 18 0 30-7 34-22zm-45-69c5-46-57-63-70-21-2 6-4 13-4 21h74" id="ag"/><path fill="#a9afb8" d="M220-157c-53 9-28 100-34 157h-49v-107c1-27-5-49-29-50C55-147 81-57 75 0H25l-1-190h47c2 12-1 28 3 38 10-53 101-56 108 0 13-22 24-43 59-42 82 1 51 116 57 194h-49v-107c-1-25-5-48-29-50" id="ah"/><path fill="#a9afb8" d="M25-224v-37h50v37H25zM25 0v-190h50V0H25" id="ai"/><g id="b"><use transform="matrix(0.0728395061728395,0,0,0.0728395061728395,0,0)" xlink:href="#ac"/><use transform="matrix(0.0728395061728395,0,0,0.0728395061728395,18.86543209876543,0)" xlink:href="#ad"/><use transform="matrix(0.0728395061728395,0,0,0.0728395061728395,33.43333333333333,0)" xlink:href="#ae"/><use transform="matrix(0.0728395061728395,0,0,0.0728395061728395,48.00123456790123,0)" xlink:href="#af"/><use transform="matrix(0.0728395061728395,0,0,0.0728395061728395,63.95308641975308,0)" xlink:href="#ag"/><use transform="matrix(0.0728395061728395,0,0,0.0728395061728395,78.52098765432098,0)" xlink:href="#ah"/><use transform="matrix(0.0728395061728395,0,0,0.0728395061728395,101.82962962962962,0)" xlink:href="#ai"/><use transform="matrix(0.0728395061728395,0,0,0.0728395061728395,109.11358024691359,0)" xlink:href="#ae"/></g><g id="c"><use transform="matrix(0.0728395061728395,0,0,0.0728395061728395,0,0)" xlink:href="#af"/><use transform="matrix(0.0728395061728395,0,0,0.0728395061728395,15.95185185185185,0)" xlink:href="#ag"/></g><path fill="#a9afb8" d="M67-125c0 54 23 88 75 88 28 0 53-7 68-21v-34h-60v-39h108v91C232-14 192 4 140 4 58 4 20-42 15-125 8-236 126-280 215-234c19 10 29 26 37 47l-47 15c-11-23-29-39-63-39-53 1-75 33-75 86" id="aj"/><path fill="#a9afb8" d="M135-194c87-1 58 113 63 194h-50c-7-57 23-157-34-157-59 0-34 97-39 157H25l-1-190h47c2 12-1 28 3 38 12-26 28-41 61-42" id="ak"/><path fill="#a9afb8" d="M132-34C116-15 102 5 68 4 31 3 10-16 10-54c-1-60 55-63 116-61 1-26-3-47-28-47-18 1-26 9-28 27l-52-2c7-38 36-58 82-57s74 22 75 68l1 82c-1 14 12 18 25 15v27c-30 8-71 5-69-32zm-48 3c29 0 43-24 42-57-32 0-66-3-65 30 0 17 8 27 23 27zM66-208v-5l45-51h45v8l-60 48H66" id="al"/><path fill="#a9afb8" d="M137-138c1-29-70-34-71-4 15 46 118 7 119 86 1 83-164 76-172 9l43-7c4 19 20 25 44 25 33 8 57-30 24-41C81-84 22-81 20-136c-2-80 154-74 161-7" id="am"/><path fill="#a9afb8" d="M115-3C79 11 28 4 28-45v-112H4v-33h27l15-45h31v45h36v33H77v99c-1 23 16 31 38 25v30" id="an"/><g id="d"><use transform="matrix(0.0728395061728395,0,0,0.0728395061728395,0,0)" xlink:href="#aj"/><use transform="matrix(0.0728395061728395,0,0,0.0728395061728395,20.39506172839506,0)" xlink:href="#ai"/><use transform="matrix(0.0728395061728395,0,0,0.0728395061728395,27.67901234567901,0)" xlink:href="#ak"/><use transform="matrix(0.0728395061728395,0,0,0.0728395061728395,43.63086419753086,0)" xlink:href="#al"/><use transform="matrix(0.0728395061728395,0,0,0.0728395061728395,58.19876543209875,0)" xlink:href="#am"/><use transform="matrix(0.0728395061728395,0,0,0.0728395061728395,72.76666666666667,0)" xlink:href="#an"/><use transform="matrix(0.0728395061728395,0,0,0.0728395061728395,81.43456790123457,0)" xlink:href="#ai"/><use transform="matrix(0.0728395061728395,0,0,0.0728395061728395,88.71851851851852,0)" xlink:href="#ad"/><use transform="matrix(0.0728395061728395,0,0,0.0728395061728395,103.28641975308642,0)" xlink:href="#ae"/></g><path fill="#a9afb8" d="M240 0l2-218c-23 76-54 145-80 218h-23L58-218 59 0H30v-248h44l77 211c21-75 51-140 76-211h43V0h-30" id="ao"/><path fill="#a9afb8" d="M141-36C126-15 110 5 73 4 37 3 15-17 15-53c-1-64 63-63 125-63 3-35-9-54-41-54-24 1-41 7-42 31l-33-3c5-37 33-52 76-52 45 0 72 20 72 64v82c-1 20 7 32 28 27v20c-31 9-61-2-59-35zM48-53c0 20 12 33 32 33 41-3 63-29 60-74-43 2-92-5-92 41" id="ap"/><path fill="#a9afb8" d="M59-47c-2 24 18 29 38 22v24C64 9 27 4 27-40v-127H5v-23h24l9-43h21v43h35v23H59v120" id="aq"/><path fill="#a9afb8" d="M106-169C34-169 62-67 57 0H25v-261h32l-1 103c12-21 28-36 61-36 89 0 53 116 60 194h-32v-121c2-32-8-49-39-48" id="ar"/><path fill="#a9afb8" d="M100-194c63 0 86 42 84 106H49c0 40 14 67 53 68 26 1 43-12 49-29l28 8c-11 28-37 45-77 45C44 4 14-33 15-96c1-61 26-98 85-98zm52 81c6-60-76-77-97-28-3 7-6 17-6 28h103" id="as"/><path fill="#a9afb8" d="M84 4C-5 8 30-112 23-190h32v120c0 31 7 50 39 49 72-2 45-101 50-169h31l1 190h-30c-1-10 1-25-2-33-11 22-28 36-60 37" id="at"/><path fill="#a9afb8" d="M135-143c-3-34-86-38-87 0 15 53 115 12 119 90S17 21 10-45l28-5c4 36 97 45 98 0-10-56-113-15-118-90-4-57 82-63 122-42 12 7 21 19 24 35" id="au"/><g id="e"><use transform="matrix(0.04248971193415638,0,0,0.04248971193415638,0,0)" xlink:href="#ao"/><use transform="matrix(0.04248971193415638,0,0,0.04248971193415638,12.704423868312757,0)" xlink:href="#ap"/><use transform="matrix(0.04248971193415638,0,0,0.04248971193415638,21.20236625514403,0)" xlink:href="#aq"/><use transform="matrix(0.04248971193415638,0,0,0.04248971193415638,25.45133744855967,0)" xlink:href="#ar"/><use transform="matrix(0.04248971193415638,0,0,0.04248971193415638,33.949279835390946,0)" xlink:href="#as"/><use transform="matrix(0.04248971193415638,0,0,0.04248971193415638,42.44722222222222,0)" xlink:href="#at"/><use transform="matrix(0.04248971193415638,0,0,0.04248971193415638,50.94516460905349,0)" xlink:href="#au"/></g><path fill="#a9afb8" d="M30-248c118-7 216 8 213 122C240-48 200 0 122 0H30v-248zM63-27c89 8 146-16 146-99s-60-101-146-95v194" id="av"/><path fill="#a9afb8" d="M145-31C134-9 116 4 85 4 32 4 16-35 15-94c0-59 17-99 70-100 32-1 48 14 60 33 0-11-1-24 2-32h30l-1 268h-32zM93-21c41 0 51-33 51-76s-8-73-50-73c-40 0-46 35-46 75s5 74 45 74" id="aw"/><g id="f"><use transform="matrix(0.04248971193415638,0,0,0.04248971193415638,0,0)" xlink:href="#av"/><use transform="matrix(0.04248971193415638,0,0,0.04248971193415638,11.004835390946502,0)" xlink:href="#at"/><use transform="matrix(0.04248971193415638,0,0,0.04248971193415638,19.502777777777776,0)" xlink:href="#aw"/><use transform="matrix(0.04248971193415638,0,0,0.04248971193415638,28.000720164609046,0)" xlink:href="#at"/><use transform="matrix(0.04248971193415638,0,0,0.04248971193415638,36.498662551440326,0)" xlink:href="#as"/></g><path fill="#a9afb8" d="M32 76v-337h29V76H32" id="ax"/><use transform="matrix(0.04248971193415638,0,0,0.04248971193415638,0,0)" xlink:href="#ax" id="g"/><path fill="#a9afb8" d="M185-189c-5-48-123-54-124 2 14 75 158 14 163 119 3 78-121 87-175 55-17-10-28-26-33-46l33-7c5 56 141 63 141-1 0-78-155-14-162-118-5-82 145-84 179-34 5 7 8 16 11 25" id="ay"/><path fill="#a9afb8" d="M115-194c55 1 70 41 70 98S169 2 115 4C84 4 66-9 55-30l1 105H24l-1-265h31l2 30c10-21 28-34 59-34zm-8 174c40 0 45-34 45-75s-6-73-45-74c-42 0-51 32-51 76 0 43 10 73 51 73" id="az"/><path fill="#a9afb8" d="M210-169c-67 3-38 105-44 169h-31v-121c0-29-5-50-35-48C34-165 62-65 56 0H25l-1-190h30c1 10-1 24 2 32 10-44 99-50 107 0 11-21 27-35 58-36 85-2 47 119 55 194h-31v-121c0-29-5-49-35-48" id="aA"/><path fill="#a9afb8" d="M115-194c53 0 69 39 70 98 0 66-23 100-70 100C84 3 66-7 56-30L54 0H23l1-261h32v101c10-23 28-34 59-34zm-8 174c40 0 45-34 45-75 0-40-5-75-45-74-42 0-51 32-51 76 0 43 10 73 51 73" id="aB"/><path fill="#a9afb8" d="M114-163C36-179 61-72 57 0H25l-1-190h30c1 12-1 29 2 39 6-27 23-49 58-41v29" id="aC"/><g id="h"><use transform="matrix(0.04248971193415638,0,0,0.04248971193415638,0,0)" xlink:href="#ay"/><use transform="matrix(0.04248971193415638,0,0,0.04248971193415638,10.19753086419753,0)" xlink:href="#as"/><use transform="matrix(0.04248971193415638,0,0,0.04248971193415638,18.695473251028805,0)" xlink:href="#az"/><use transform="matrix(0.04248971193415638,0,0,0.04248971193415638,27.193415637860078,0)" xlink:href="#aq"/><use transform="matrix(0.04248971193415638,0,0,0.04248971193415638,31.442386831275712,0)" xlink:href="#as"/><use transform="matrix(0.04248971193415638,0,0,0.04248971193415638,39.94032921810699,0)" xlink:href="#aA"/><use transform="matrix(0.04248971193415638,0,0,0.04248971193415638,52.64475308641975,0)" xlink:href="#aB"/><use transform="matrix(0.04248971193415638,0,0,0.04248971193415638,61.142695473251024,0)" xlink:href="#as"/><use transform="matrix(0.04248971193415638,0,0,0.04248971193415638,69.6406378600823,0)" xlink:href="#aC"/></g><path fill="#a9afb8" d="M27 0v-27h64v-190l-56 39v-29l58-41h29v221h61V0H27" id="aD"/><path fill="#a9afb8" d="M101-251c82-7 93 87 43 132L82-64C71-53 59-42 53-27h129V0H18c2-99 128-94 128-182 0-28-16-43-45-43s-46 15-49 41l-32-3c6-41 34-60 81-64" id="aE"/><path fill="#a9afb8" d="M68-38c1 34 0 65-14 84H32c9-13 17-26 17-46H33v-38h35" id="aF"/><g id="i"><use transform="matrix(0.04248971193415638,0,0,0.04248971193415638,0,0)" xlink:href="#aD"/><use transform="matrix(0.04248971193415638,0,0,0.04248971193415638,8.497942386831275,0)" xlink:href="#aE"/><use transform="matrix(0.04248971193415638,0,0,0.04248971193415638,16.99588477366255,0)" xlink:href="#aF"/></g><path fill="#a9afb8" d="M101-251c68 0 85 55 85 127S166 4 100 4C33 4 14-52 14-124c0-73 17-127 87-127zm-1 229c47 0 54-49 54-102s-4-102-53-102c-51 0-55 48-55 102 0 53 5 102 54 102" id="aG"/><g id="j"><use transform="matrix(0.04248971193415638,0,0,0.04248971193415638,0,0)" xlink:href="#aE"/><use transform="matrix(0.04248971193415638,0,0,0.04248971193415638,8.497942386831275,0)" xlink:href="#aG"/><use transform="matrix(0.04248971193415638,0,0,0.04248971193415638,16.99588477366255,0)" xlink:href="#aE"/><use transform="matrix(0.04248971193415638,0,0,0.04248971193415638,25.493827160493822,0)" xlink:href="#aE"/></g><path fill="#333" d="M151-220L108 0H75l42-220H32l6-28h203l-5 28h-85" id="aH"/><path fill="#333" d="M67 3c-93-2-31-127-26-193h32L48-50c-3 39 53 32 70 12 30-34 30-101 43-152h32L157 0h-30c1-10 6-24 4-33-14 20-29 37-64 36" id="aI"/><path fill="#333" d="M66-151c12-25 30-51 66-40l-6 26C45-176 58-65 38 0H6l36-190h30" id="aJ"/><path fill="#333" d="M248-111c6-24 9-61-24-58-72 9-57 108-77 169h-31l26-142c3-37-50-30-64-10C52-115 50-51 37 0H6l36-190h30c-1 10-6 24-4 32 13-43 101-52 105 5 13-22 29-41 61-41 90 0 28 129 23 194h-31" id="aK"/><path fill="#333" d="M165-48c-4 18 1 34 23 27l-3 20c-29 8-62 0-52-35h-2C116-14 99 4 63 4 30 4 8-16 8-49c0-68 71-67 138-67 10-26 0-56-31-54-26 1-42 9-47 31l-32-5c8-67 160-71 144 15-5 28-9 54-15 81zM42-50c3 52 80 24 89-6 7-12 7-24 11-38-47 1-103-4-100 44" id="aL"/><g id="k"><use transform="matrix(0.05,0,0,0.05,0,0)" xlink:href="#aH"/><use transform="matrix(0.05,0,0,0.05,9.600000000000001,0)" xlink:href="#aI"/><use transform="matrix(0.05,0,0,0.05,19.6,0)" xlink:href="#aJ"/><use transform="matrix(0.05,0,0,0.05,25.55,0)" xlink:href="#aK"/><use transform="matrix(0.05,0,0,0.05,40.5,0)" xlink:href="#aL"/></g><path fill="#3a414a" d="M30-248c87 1 191-15 191 75 0 78-77 80-158 76V0H30v-248zm33 125c57 0 124 11 124-50 0-59-68-47-124-48v98" id="aM"/><path fill="#3a414a" d="M194 0L95-120 63-95V0H30v-248h33v124l119-124h40L117-140 236 0h-42" id="aN"/><g id="l"><use transform="matrix(0.05,0,0,0.05,0,0)" xlink:href="#aM"/><use transform="matrix(0.05,0,0,0.05,12,0)" xlink:href="#aN"/></g><path fill="#333" d="M50-231l6-30h32l-6 30H50zM6 0l37-190h31L37 0H6" id="aO"/><path fill="#333" d="M133-28C103 26-5 8 13-77c13-62 24-115 90-117 29-1 46 15 56 35l19-102h32L160 0h-30zM45-64c-2 27 10 43 35 43 54-1 69-50 69-103 0-29-15-46-42-46-53-1-58 58-62 106" id="aP"/><g id="m"><use transform="matrix(0.05,0,0,0.05,0,0)" xlink:href="#aO"/><use transform="matrix(0.05,0,0,0.05,3.95,0)" xlink:href="#aP"/></g><path fill="#333" d="M14 0l48-248h34L48 0H14" id="aQ"/><path fill="#333" d="M248-139C247-14 144 9 11 0l48-248c105-6 190 8 189 109zm-34 0c1-70-52-87-126-82L50-27c98 7 163-21 164-112" id="aR"/><g id="n"><use transform="matrix(0.05,0,0,0.05,0,0)" xlink:href="#aQ"/><use transform="matrix(0.05,0,0,0.05,5,0)" xlink:href="#aR"/></g><path fill="#3a414a" d="M100-194c63 0 86 42 84 106H49c0 40 14 67 53 68 26 1 43-12 49-29l28 8c-11 28-37 45-77 45C44 4 14-33 15-96c1-61 26-98 85-98zm52 81c6-60-76-77-97-28-3 7-6 17-6 28h103" id="aS"/><path fill="#3a414a" d="M179-190L93 31C79 59 56 82 12 73V49c39 6 53-20 64-50L1-190h34L92-34l54-156h33" id="aT"/><g id="o"><use transform="matrix(0.05,0,0,0.05,0,0)" xlink:href="#aN"/><use transform="matrix(0.05,0,0,0.05,12,0)" xlink:href="#aS"/><use transform="matrix(0.05,0,0,0.05,22,0)" xlink:href="#aT"/></g><path fill="#333" d="M67-158c15-20 31-36 64-36 94 0 33 127 27 194h-32l25-140c3-38-53-32-70-12C52-117 51-51 37 0H6l51-261h31" id="aU"/><path fill="#333" d="M30-147c31-64 166-65 159 27C183-49 158 1 86 4 9 8 1-88 30-147zM88-20c53 0 68-48 68-100 0-31-11-51-44-50-52 1-68 46-68 97 0 32 13 53 44 53" id="aV"/><g id="p"><use transform="matrix(0.05,0,0,0.05,0,0)" xlink:href="#aU"/><use transform="matrix(0.05,0,0,0.05,10,0)" xlink:href="#aV"/><use transform="matrix(0.05,0,0,0.05,20,0)" xlink:href="#aJ"/><use transform="matrix(0.05,0,0,0.05,25.950000000000003,0)" xlink:href="#aL"/><use transform="matrix(0.05,0,0,0.05,35.95,0)" xlink:href="#aJ"/><use transform="matrix(0.05,0,0,0.05,41.900000000000006,0)" xlink:href="#aO"/><use transform="matrix(0.05,0,0,0.05,45.85000000000001,0)" xlink:href="#aV"/></g><path fill="#333" d="M187 0l-14-72H61L19 0h-37l149-248h38L221 0h-34zm-19-99l-22-123L76-99h92" id="aW"/><path fill="#333" d="M11 0l48-248h184l-5 28H87l-15 79h140l-5 27H67L50-27h158l-5 27H11" id="aX"/><g id="q"><use transform="matrix(0.05,0,0,0.05,0,0)" xlink:href="#aR"/><use transform="matrix(0.05,0,0,0.05,12.950000000000001,0)" xlink:href="#aW"/><use transform="matrix(0.05,0,0,0.05,23.6,0)" xlink:href="#aH"/><use transform="matrix(0.05,0,0,0.05,34.550000000000004,0)" xlink:href="#aX"/></g><g id="r"><use transform="matrix(0.05,0,0,0.05,0,0)" xlink:href="#aN"/><use transform="matrix(0.05,0,0,0.05,12,0)" xlink:href="#aS"/><use transform="matrix(0.05,0,0,0.05,22,0)" xlink:href="#aT"/></g><path fill="#333" d="M6 0l50-261h32L37 0H6" id="aY"/><path fill="#333" d="M67-158c22-48 132-52 116 29L158 0h-32l25-140c3-38-53-32-70-12C52-117 51-52 38 0H6l36-190h30" id="aZ"/><path fill="#333" d="M-28 44V31h207v13H-28" id="ba"/><path fill="#333" d="M51-54c-9 22 5 41 31 30L79-1C43 14 10-4 19-52l22-115H19l5-23h22l19-43h21l-9 43h35l-4 23H73" id="bb"/><g id="s"><use transform="matrix(0.05,0,0,0.05,0,0)" xlink:href="#aL"/><use transform="matrix(0.05,0,0,0.05,10,0)" xlink:href="#aY"/><use transform="matrix(0.05,0,0,0.05,13.949999999999998,0)" xlink:href="#aI"/><use transform="matrix(0.05,0,0,0.05,23.95,0)" xlink:href="#aZ"/><use transform="matrix(0.05,0,0,0.05,33.95,0)" xlink:href="#aV"/><use transform="matrix(0.05,0,0,0.05,43.95,0)" xlink:href="#ba"/><use transform="matrix(0.05,0,0,0.05,53.95,0)" xlink:href="#aK"/><use transform="matrix(0.05,0,0,0.05,68.9,0)" xlink:href="#aV"/><use transform="matrix(0.05,0,0,0.05,78.9,0)" xlink:href="#aZ"/><use transform="matrix(0.05,0,0,0.05,88.9,0)" xlink:href="#aO"/><use transform="matrix(0.05,0,0,0.05,92.85000000000001,0)" xlink:href="#bb"/><use transform="matrix(0.05,0,0,0.05,97.85000000000001,0)" xlink:href="#aV"/><use transform="matrix(0.05,0,0,0.05,107.85000000000001,0)" xlink:href="#aJ"/></g><path fill="#333" d="M173 0L80-213 41 0H11l48-248h37l94 214 40-214h30L212 0h-39" id="bc"/><g id="t"><use transform="matrix(0.05,0,0,0.05,0,0)" xlink:href="#aQ"/><use transform="matrix(0.05,0,0,0.05,5,0)" xlink:href="#bc"/><use transform="matrix(0.05,0,0,0.05,17.950000000000003,0)" xlink:href="#aH"/></g><g id="u"><use transform="matrix(0.05,0,0,0.05,0,0)" xlink:href="#aP"/><use transform="matrix(0.05,0,0,0.05,10,0)" xlink:href="#aL"/><use transform="matrix(0.05,0,0,0.05,20,0)" xlink:href="#bb"/><use transform="matrix(0.05,0,0,0.05,25,0)" xlink:href="#aL"/><use transform="matrix(0.05,0,0,0.05,35,0)" xlink:href="#ba"/><use transform="matrix(0.05,0,0,0.05,45,0)" xlink:href="#aO"/><use transform="matrix(0.05,0,0,0.05,48.95,0)" xlink:href="#aZ"/><use transform="matrix(0.05,0,0,0.05,58.95,0)" xlink:href="#aO"/><use transform="matrix(0.05,0,0,0.05,62.900000000000006,0)" xlink:href="#bb"/></g><path fill="#333" d="M76-167L44 0H12l33-167H18l4-23h27c3-47 25-81 82-69l-4 24c-35-8-44 15-46 45h37l-5 23H76" id="bd"/><g id="v"><use transform="matrix(0.05,0,0,0.05,0,0)" xlink:href="#aP"/><use transform="matrix(0.05,0,0,0.05,10,0)" xlink:href="#aL"/><use transform="matrix(0.05,0,0,0.05,20,0)" xlink:href="#bb"/><use transform="matrix(0.05,0,0,0.05,25,0)" xlink:href="#aL"/><use transform="matrix(0.05,0,0,0.05,35,0)" xlink:href="#ba"/><use transform="matrix(0.05,0,0,0.05,45,0)" xlink:href="#bd"/><use transform="matrix(0.05,0,0,0.05,50,0)" xlink:href="#aO"/><use transform="matrix(0.05,0,0,0.05,53.95,0)" xlink:href="#aZ"/><use transform="matrix(0.05,0,0,0.05,63.95,0)" xlink:href="#aL"/><use transform="matrix(0.05,0,0,0.05,73.95,0)" xlink:href="#aY"/></g><path fill="#333" d="M133-28C103 26-5 8 13-77c13-62 24-115 90-117 29-1 46 15 56 35 2-12 6-24 8-34h31L144 75h-31zM45-64c-2 27 10 43 35 43 54-1 69-50 69-103 0-29-15-46-42-46-53-1-58 58-62 106" id="be"/><path fill="#333" d="M124 0L87-78 21 0h-35l86-98-46-92h33l34 74 61-74h37l-83 92 50 98h-34" id="bf"/><path fill="#333" d="M55-144c13 50 104 24 104 88C159 21 15 23 1-39l26-10c6 40 102 42 102-4-13-50-104-23-104-87 0-71 143-71 148-8l-29 4c-5-35-85-37-89 0" id="bg"/><g id="w"><use transform="matrix(0.05,0,0,0.05,0,0)" xlink:href="#be"/><use transform="matrix(0.05,0,0,0.05,10,0)" xlink:href="#bb"/><use transform="matrix(0.05,0,0,0.05,15,0)" xlink:href="#aP"/><use transform="matrix(0.05,0,0,0.05,25,0)" xlink:href="#ba"/><use transform="matrix(0.05,0,0,0.05,35,0)" xlink:href="#aK"/><use transform="matrix(0.05,0,0,0.05,49.95,0)" xlink:href="#aL"/><use transform="matrix(0.05,0,0,0.05,59.95,0)" xlink:href="#bf"/><use transform="matrix(0.05,0,0,0.05,68.95,0)" xlink:href="#ba"/><use transform="matrix(0.05,0,0,0.05,78.95,0)" xlink:href="#aL"/><use transform="matrix(0.05,0,0,0.05,88.95,0)" xlink:href="#aY"/><use transform="matrix(0.05,0,0,0.05,92.9,0)" xlink:href="#aI"/><use transform="matrix(0.05,0,0,0.05,102.9,0)" xlink:href="#aZ"/><use transform="matrix(0.05,0,0,0.05,112.9,0)" xlink:href="#aV"/><use transform="matrix(0.05,0,0,0.05,122.9,0)" xlink:href="#bg"/></g><g id="x"><use transform="matrix(0.05,0,0,0.05,0,0)" xlink:href="#aQ"/><use transform="matrix(0.05,0,0,0.05,5,0)" xlink:href="#bc"/><use transform="matrix(0.05,0,0,0.05,17.950000000000003,0)" xlink:href="#aH"/></g><path fill="#333" d="M67-162c32-53 139-36 121 50C175-51 163 2 97 4 68 4 52-11 42-31 38 6 28 39 22 75H-9l50-265h29c-1 10 0 20-3 28zm89 36c0-26-10-43-35-43-54 0-67 50-69 103-1 29 14 45 42 46 53 0 62-58 62-106" id="bh"/><path fill="#333" d="M89 0H52L20-190h33L74-25l89-165h34" id="bi"/><g id="y"><use transform="matrix(0.05,0,0,0.05,0,0)" xlink:href="#bb"/><use transform="matrix(0.05,0,0,0.05,5,0)" xlink:href="#aO"/><use transform="matrix(0.05,0,0,0.05,8.95,0)" xlink:href="#bh"/><use transform="matrix(0.05,0,0,0.05,18.95,0)" xlink:href="#aV"/><use transform="matrix(0.05,0,0,0.05,28.950000000000003,0)" xlink:href="#ba"/><use transform="matrix(0.05,0,0,0.05,38.95,0)" xlink:href="#aL"/><use transform="matrix(0.05,0,0,0.05,48.95,0)" xlink:href="#bb"/><use transform="matrix(0.05,0,0,0.05,53.95,0)" xlink:href="#bi"/></g><path fill="#333" d="M119 0H84L31-248h34l41 218 126-218h36" id="bj"/><path fill="#333" d="M249-183c0 48-29 72-75 77L221 0h-36l-43-103H65L45 0H11l48-248c83 2 190-17 190 65zm-34 3c0-55-74-39-127-41l-18 92c63-1 145 13 145-51" id="bk"/><path fill="#333" d="M125-24c46 0 70-25 89-51l25 16C214-24 183 4 123 4 8 4-5-146 60-208c32-50 158-61 191-5 5 7 9 14 11 22l-32 10c-9-28-33-43-69-43-74 0-108 51-108 125 0 46 24 75 72 75" id="bl"/><path fill="#333" d="M179 0l23-115H67L45 0H11l48-248h34L72-143h135l21-105h32L212 0h-33" id="bm"/><g id="z"><use transform="matrix(0.05,0,0,0.05,0,0)" xlink:href="#bj"/><use transform="matrix(0.05,0,0,0.05,11,0)" xlink:href="#aW"/><use transform="matrix(0.05,0,0,0.05,23,0)" xlink:href="#bk"/><use transform="matrix(0.05,0,0,0.05,35.95,0)" xlink:href="#bl"/><use transform="matrix(0.05,0,0,0.05,48.900000000000006,0)" xlink:href="#bm"/><use transform="matrix(0.05,0,0,0.05,61.85,0)" xlink:href="#aW"/><use transform="matrix(0.05,0,0,0.05,73.85000000000001,0)" xlink:href="#bk"/></g><g id="A"><use transform="matrix(0.05,0,0,0.05,0,0)" xlink:href="#aQ"/><use transform="matrix(0.05,0,0,0.05,5,0)" xlink:href="#aZ"/><use transform="matrix(0.05,0,0,0.05,15,0)" xlink:href="#bg"/><use transform="matrix(0.05,0,0,0.05,24,0)" xlink:href="#bb"/><use transform="matrix(0.05,0,0,0.05,29,0)" xlink:href="#aJ"/><use transform="matrix(0.05,0,0,0.05,34.95,0)" xlink:href="#aI"/><use transform="matrix(0.05,0,0,0.05,44.95,0)" xlink:href="#bb"/><use transform="matrix(0.05,0,0,0.05,49.95,0)" xlink:href="#aV"/><use transform="matrix(0.05,0,0,0.05,59.95,0)" xlink:href="#aJ"/></g><path fill="#3a414a" d="M24-231v-30h32v30H24zM24 0v-190h32V0H24" id="bn"/><path fill="#3a414a" d="M85-194c31 0 48 13 60 33l-1-100h32l1 261h-30c-2-10 0-23-3-31C134-8 116 4 85 4 32 4 16-35 15-94c0-66 23-100 70-100zm9 24c-40 0-46 34-46 75 0 40 6 74 45 74 42 0 51-32 51-76 0-42-9-74-50-73" id="bo"/><g id="B"><use transform="matrix(0.05,0,0,0.05,0,0)" xlink:href="#bn"/><use transform="matrix(0.05,0,0,0.05,3.95,0)" xlink:href="#bo"/></g><path fill="#3a414a" d="M33 0v-248h34V0H33" id="bp"/><path fill="#3a414a" d="M30-248c118-7 216 8 213 122C240-48 200 0 122 0H30v-248zM63-27c89 8 146-16 146-99s-60-101-146-95v194" id="bq"/><g id="C"><use transform="matrix(0.05,0,0,0.05,0,0)" xlink:href="#bp"/><use transform="matrix(0.05,0,0,0.05,5,0)" xlink:href="#bq"/></g><path fill="#333" d="M111-194c62-3 86 47 72 106H45c-7 38 6 69 45 68 27-1 43-14 53-32l24 11C152-15 129 4 87 4 38 3 12-23 12-71c0-70 32-119 99-123zm44 81c14-66-71-72-95-28-4 8-8 17-11 28h106" id="br"/><g id="D"><use transform="matrix(0.05,0,0,0.05,0,0)" xlink:href="#aZ"/><use transform="matrix(0.05,0,0,0.05,10,0)" xlink:href="#aV"/><use transform="matrix(0.05,0,0,0.05,20,0)" xlink:href="#aK"/><use transform="matrix(0.05,0,0,0.05,34.95,0)" xlink:href="#br"/></g><path fill="#333" d="M52-101C46-14 166-7 216-51l9-45h-74l6-28h105l-18 87C217-12 181 4 130 4 60 4 18-31 18-101c0-106 78-167 188-146 30 6 48 27 59 54l-34 9c-10-26-31-41-67-40-75 1-107 50-112 123" id="bs"/><g id="E"><use transform="matrix(0.05,0,0,0.05,0,0)" xlink:href="#bk"/><use transform="matrix(0.05,0,0,0.05,12.950000000000001,0)" xlink:href="#bs"/></g><path fill="#333" d="M44-68c0 29 11 47 38 47 30 0 42-19 51-41l28 9C148-21 126 4 82 4 31 4 10-29 12-85c3-77 74-140 146-93 12 8 15 23 18 40l-31 5c-1-22-13-36-36-36-52 0-65 49-65 101" id="bt"/><g id="F"><use transform="matrix(0.05,0,0,0.05,0,0)" xlink:href="#aP"/><use transform="matrix(0.05,0,0,0.05,10,0)" xlink:href="#aL"/><use transform="matrix(0.05,0,0,0.05,20,0)" xlink:href="#bb"/><use transform="matrix(0.05,0,0,0.05,25,0)" xlink:href="#aL"/><use transform="matrix(0.05,0,0,0.05,35,0)" xlink:href="#ba"/><use transform="matrix(0.05,0,0,0.05,45,0)" xlink:href="#aZ"/><use transform="matrix(0.05,0,0,0.05,55,0)" xlink:href="#aL"/><use transform="matrix(0.05,0,0,0.05,65,0)" xlink:href="#bg"/><use transform="matrix(0.05,0,0,0.05,74,0)" xlink:href="#bt"/></g><g id="G"><use transform="matrix(0.05,0,0,0.05,0,0)" xlink:href="#bb"/><use transform="matrix(0.05,0,0,0.05,5,0)" xlink:href="#aO"/><use transform="matrix(0.05,0,0,0.05,8.95,0)" xlink:href="#bb"/><use transform="matrix(0.05,0,0,0.05,13.949999999999998,0)" xlink:href="#aI"/><use transform="matrix(0.05,0,0,0.05,23.95,0)" xlink:href="#aY"/><use transform="matrix(0.05,0,0,0.05,27.899999999999995,0)" xlink:href="#aL"/><use transform="matrix(0.05,0,0,0.05,37.9,0)" xlink:href="#bt"/><use transform="matrix(0.05,0,0,0.05,46.9,0)" xlink:href="#aL"/><use transform="matrix(0.05,0,0,0.05,56.900000000000006,0)" xlink:href="#aV"/></g><path fill="#3a414a" d="M63-220v92h138v28H63V0H30v-248h175v28H63" id="bu"/><g id="H"><use transform="matrix(0.05,0,0,0.05,0,0)" xlink:href="#bu"/><use transform="matrix(0.05,0,0,0.05,10.950000000000001,0)" xlink:href="#aN"/></g><path fill="#3a414a" d="M117-194c89-4 53 116 60 194h-32v-121c0-31-8-49-39-48C34-167 62-67 57 0H25l-1-190h30c1 10-1 24 2 32 11-22 29-35 61-36" id="bv"/><path fill="#3a414a" d="M84 4C-5 8 30-112 23-190h32v120c0 31 7 50 39 49 72-2 45-101 50-169h31l1 190h-30c-1-10 1-25-2-33-11 22-28 36-60 37" id="bw"/><path fill="#3a414a" d="M210-169c-67 3-38 105-44 169h-31v-121c0-29-5-50-35-48C34-165 62-65 56 0H25l-1-190h30c1 10-1 24 2 32 10-44 99-50 107 0 11-21 27-35 58-36 85-2 47 119 55 194h-31v-121c0-29-5-49-35-48" id="bx"/><path fill="#3a414a" d="M114-163C36-179 61-72 57 0H25l-1-190h30c1 12-1 29 2 39 6-27 23-49 58-41v29" id="by"/><path fill="#3a414a" d="M100-194c62-1 85 37 85 99 1 63-27 99-86 99S16-35 15-95c0-66 28-99 85-99zM99-20c44 1 53-31 53-75 0-43-8-75-51-75s-53 32-53 75 10 74 51 75" id="bz"/><path fill="#3a414a" d="M-5 72V49h209v23H-5" id="bA"/><path fill="#3a414a" d="M59-47c-2 24 18 29 38 22v24C64 9 27 4 27-40v-127H5v-23h24l9-43h21v43h35v23H59v120" id="bB"/><path fill="#3a414a" d="M24 0v-261h32V0H24" id="bC"/><path fill="#3a414a" d="M101-234c-31-9-42 10-38 44h38v23H63V0H32v-167H5v-23h27c-7-52 17-82 69-68v24" id="bD"/><g id="I"><use transform="matrix(0.05,0,0,0.05,0,0)" xlink:href="#bv"/><use transform="matrix(0.05,0,0,0.05,10,0)" xlink:href="#bw"/><use transform="matrix(0.05,0,0,0.05,20,0)" xlink:href="#bx"/><use transform="matrix(0.05,0,0,0.05,34.95,0)" xlink:href="#aS"/><use transform="matrix(0.05,0,0,0.05,44.95,0)" xlink:href="#by"/><use transform="matrix(0.05,0,0,0.05,50.900000000000006,0)" xlink:href="#bz"/><use transform="matrix(0.05,0,0,0.05,60.900000000000006,0)" xlink:href="#bA"/><use transform="matrix(0.05,0,0,0.05,70.9,0)" xlink:href="#bB"/><use transform="matrix(0.05,0,0,0.05,75.9,0)" xlink:href="#aS"/><use transform="matrix(0.05,0,0,0.05,85.9,0)" xlink:href="#bC"/><use transform="matrix(0.05,0,0,0.05,89.85000000000001,0)" xlink:href="#aS"/><use transform="matrix(0.05,0,0,0.05,99.85000000000001,0)" xlink:href="#bD"/><use transform="matrix(0.05,0,0,0.05,104.85000000000001,0)" xlink:href="#bz"/><use transform="matrix(0.05,0,0,0.05,114.85000000000001,0)" xlink:href="#bv"/><use transform="matrix(0.05,0,0,0.05,124.85000000000001,0)" xlink:href="#aS"/></g><path fill="#3a414a" d="M190 0L58-211 59 0H30v-248h39L202-35l-2-213h31V0h-41" id="bE"/><path fill="#3a414a" d="M127-220V0H93v-220H8v-28h204v28h-85" id="bF"/><g id="J"><use transform="matrix(0.05,0,0,0.05,0,0)" xlink:href="#bp"/><use transform="matrix(0.05,0,0,0.05,5,0)" xlink:href="#bE"/><use transform="matrix(0.05,0,0,0.05,17.950000000000003,0)" xlink:href="#bF"/></g><g id="K"><use transform="matrix(0.05,0,0,0.05,0,0)" xlink:href="#bF"/><use transform="matrix(0.05,0,0,0.05,8.950000000000001,0)" xlink:href="#aS"/><use transform="matrix(0.05,0,0,0.05,18.950000000000003,0)" xlink:href="#bC"/><use transform="matrix(0.05,0,0,0.05,22.900000000000002,0)" xlink:href="#aS"/><use transform="matrix(0.05,0,0,0.05,32.900000000000006,0)" xlink:href="#bD"/><use transform="matrix(0.05,0,0,0.05,37.900000000000006,0)" xlink:href="#bz"/><use transform="matrix(0.05,0,0,0.05,47.900000000000006,0)" xlink:href="#bv"/><use transform="matrix(0.05,0,0,0.05,57.900000000000006,0)" xlink:href="#aS"/></g><g id="L"><use transform="matrix(0.05,0,0,0.05,0,0)" xlink:href="#bv"/><use transform="matrix(0.05,0,0,0.05,10,0)" xlink:href="#bz"/><use transform="matrix(0.05,0,0,0.05,20,0)" xlink:href="#bx"/><use transform="matrix(0.05,0,0,0.05,34.95,0)" xlink:href="#aS"/><use transform="matrix(0.05,0,0,0.05,44.95,0)" xlink:href="#bA"/><use transform="matrix(0.05,0,0,0.05,54.95,0)" xlink:href="#bB"/><use transform="matrix(0.05,0,0,0.05,59.95,0)" xlink:href="#aS"/><use transform="matrix(0.05,0,0,0.05,69.95,0)" xlink:href="#bC"/><use transform="matrix(0.05,0,0,0.05,73.9,0)" xlink:href="#aS"/><use transform="matrix(0.05,0,0,0.05,83.9,0)" xlink:href="#bD"/><use transform="matrix(0.05,0,0,0.05,88.9,0)" xlink:href="#bz"/><use transform="matrix(0.05,0,0,0.05,98.9,0)" xlink:href="#bv"/><use transform="matrix(0.05,0,0,0.05,108.9,0)" xlink:href="#aS"/></g><path fill="#3a414a" d="M137 0h-34L2-248h35l83 218 83-218h36" id="bG"/><path fill="#3a414a" d="M205 0l-28-72H64L36 0H1l101-248h38L239 0h-34zm-38-99l-47-123c-12 45-31 82-46 123h93" id="bH"/><path fill="#3a414a" d="M233-177c-1 41-23 64-60 70L243 0h-38l-65-103H63V0H30v-248c88 3 205-21 203 71zM63-129c60-2 137 13 137-47 0-61-80-42-137-45v92" id="bI"/><path fill="#3a414a" d="M212-179c-10-28-35-45-73-45-59 0-87 40-87 99 0 60 29 101 89 101 43 0 62-24 78-52l27 14C228-24 195 4 139 4 59 4 22-46 18-125c-6-104 99-153 187-111 19 9 31 26 39 46" id="bJ"/><path fill="#3a414a" d="M197 0v-115H63V0H30v-248h33v105h134v-105h34V0h-34" id="bK"/><g id="M"><use transform="matrix(0.05,0,0,0.05,0,0)" xlink:href="#bG"/><use transform="matrix(0.05,0,0,0.05,10.65,0)" xlink:href="#bH"/><use transform="matrix(0.05,0,0,0.05,22.65,0)" xlink:href="#bI"/><use transform="matrix(0.05,0,0,0.05,35.6,0)" xlink:href="#bJ"/><use transform="matrix(0.05,0,0,0.05,48.550000000000004,0)" xlink:href="#bK"/><use transform="matrix(0.05,0,0,0.05,61.5,0)" xlink:href="#bH"/><use transform="matrix(0.05,0,0,0.05,73.5,0)" xlink:href="#bI"/></g><g id="N"><use transform="matrix(0.05,0,0,0.05,0,0)" xlink:href="#bH"/><use transform="matrix(0.05,0,0,0.05,12,0)" xlink:href="#bC"/><use transform="matrix(0.05,0,0,0.05,15.949999999999998,0)" xlink:href="#bw"/><use transform="matrix(0.05,0,0,0.05,25.950000000000003,0)" xlink:href="#bv"/><use transform="matrix(0.05,0,0,0.05,35.95,0)" xlink:href="#bz"/></g><path fill="#3a414a" d="M96-169c-40 0-48 33-48 73s9 75 48 75c24 0 41-14 43-38l32 2c-6 37-31 61-74 61-59 0-76-41-82-99-10-93 101-131 147-64 4 7 5 14 7 22l-32 3c-4-21-16-35-41-35" id="bL"/><path fill="#3a414a" d="M177-190C167-65 218 103 67 71c-23-6-38-20-44-43l32-5c15 47 100 32 89-28v-30C133-14 115 1 83 1 29 1 15-40 15-95c0-56 16-97 71-98 29-1 48 16 59 35 1-10 0-23 2-32h30zM94-22c36 0 50-32 50-73 0-42-14-75-50-75-39 0-46 34-46 75s6 73 46 73" id="bM"/><path fill="#3a414a" d="M141-36C126-15 110 5 73 4 37 3 15-17 15-53c-1-64 63-63 125-63 3-35-9-54-41-54-24 1-41 7-42 31l-33-3c5-37 33-52 76-52 45 0 72 20 72 64v82c-1 20 7 32 28 27v20c-31 9-61-2-59-35zM48-53c0 20 12 33 32 33 41-3 63-29 60-74-43 2-92-5-92 41" id="bN"/><g id="O"><use transform="matrix(0.05,0,0,0.05,0,0)" xlink:href="#bL"/><use transform="matrix(0.05,0,0,0.05,9,0)" xlink:href="#bz"/><use transform="matrix(0.05,0,0,0.05,19,0)" xlink:href="#bo"/><use transform="matrix(0.05,0,0,0.05,29,0)" xlink:href="#bn"/><use transform="matrix(0.05,0,0,0.05,32.95,0)" xlink:href="#bM"/><use transform="matrix(0.05,0,0,0.05,42.95,0)" xlink:href="#bz"/><use transform="matrix(0.05,0,0,0.05,52.95,0)" xlink:href="#bA"/><use transform="matrix(0.05,0,0,0.05,62.95,0)" xlink:href="#bx"/><use transform="matrix(0.05,0,0,0.05,77.9,0)" xlink:href="#bN"/><use transform="matrix(0.05,0,0,0.05,87.9,0)" xlink:href="#bB"/><use transform="matrix(0.05,0,0,0.05,92.9,0)" xlink:href="#by"/><use transform="matrix(0.05,0,0,0.05,98.85000000000001,0)" xlink:href="#bn"/><use transform="matrix(0.05,0,0,0.05,102.80000000000001,0)" xlink:href="#bL"/><use transform="matrix(0.05,0,0,0.05,111.80000000000001,0)" xlink:href="#bw"/><use transform="matrix(0.05,0,0,0.05,121.80000000000001,0)" xlink:href="#bC"/><use transform="matrix(0.05,0,0,0.05,125.75,0)" xlink:href="#bN"/></g><g id="P"><use transform="matrix(0.05,0,0,0.05,0,0)" xlink:href="#bG"/><use transform="matrix(0.05,0,0,0.05,10.65,0)" xlink:href="#bH"/><use transform="matrix(0.05,0,0,0.05,22.65,0)" xlink:href="#bJ"/><use transform="matrix(0.05,0,0,0.05,35.6,0)" xlink:href="#bK"/><use transform="matrix(0.05,0,0,0.05,48.550000000000004,0)" xlink:href="#bH"/><use transform="matrix(0.05,0,0,0.05,60.550000000000004,0)" xlink:href="#bI"/></g><g id="Q"><use transform="matrix(0.05,0,0,0.05,0,0)" xlink:href="#aS"/><use transform="matrix(0.05,0,0,0.05,10,0)" xlink:href="#bv"/><use transform="matrix(0.05,0,0,0.05,20,0)" xlink:href="#bo"/><use transform="matrix(0.05,0,0,0.05,30,0)" xlink:href="#aS"/><use transform="matrix(0.05,0,0,0.05,40,0)" xlink:href="#by"/><use transform="matrix(0.05,0,0,0.05,45.95,0)" xlink:href="#aS"/><use transform="matrix(0.05,0,0,0.05,55.95,0)" xlink:href="#bL"/><use transform="matrix(0.05,0,0,0.05,64.95,0)" xlink:href="#bz"/></g><path fill="#3a414a" d="M135-143c-3-34-86-38-87 0 15 53 115 12 119 90S17 21 10-45l28-5c4 36 97 45 98 0-10-56-113-15-118-90-4-57 82-63 122-42 12 7 21 19 24 35" id="bO"/><g id="R"><use transform="matrix(0.05,0,0,0.05,0,0)" xlink:href="#bo"/><use transform="matrix(0.05,0,0,0.05,10,0)" xlink:href="#bN"/><use transform="matrix(0.05,0,0,0.05,20,0)" xlink:href="#bB"/><use transform="matrix(0.05,0,0,0.05,25,0)" xlink:href="#bN"/><use transform="matrix(0.05,0,0,0.05,35,0)" xlink:href="#bA"/><use transform="matrix(0.05,0,0,0.05,45,0)" xlink:href="#bv"/><use transform="matrix(0.05,0,0,0.05,55,0)" xlink:href="#bN"/><use transform="matrix(0.05,0,0,0.05,65,0)" xlink:href="#bO"/><use transform="matrix(0.05,0,0,0.05,74,0)" xlink:href="#bL"/></g><path fill="#3a414a" d="M30 0v-248h187v28H63v79h144v27H63v87h162V0H30" id="bP"/><g id="S"><use transform="matrix(0.05,0,0,0.05,0,0)" xlink:href="#bq"/><use transform="matrix(0.05,0,0,0.05,12.950000000000001,0)" xlink:href="#bH"/><use transform="matrix(0.05,0,0,0.05,23.6,0)" xlink:href="#bF"/><use transform="matrix(0.05,0,0,0.05,34.550000000000004,0)" xlink:href="#bP"/></g><g id="T"><use transform="matrix(0.05,0,0,0.05,0,0)" xlink:href="#bN"/><use transform="matrix(0.05,0,0,0.05,10,0)" xlink:href="#bC"/><use transform="matrix(0.05,0,0,0.05,13.949999999999998,0)" xlink:href="#bB"/><use transform="matrix(0.05,0,0,0.05,18.95,0)" xlink:href="#bw"/><use transform="matrix(0.05,0,0,0.05,28.950000000000003,0)" xlink:href="#by"/><use transform="matrix(0.05,0,0,0.05,34.9,0)" xlink:href="#bN"/></g><path fill="#3a414a" d="M30 0v-248h33v221h125V0H30" id="bQ"/><path fill="#3a414a" d="M140-251c81 0 123 46 123 126C263-46 219 4 140 4 59 4 17-45 17-125s42-126 123-126zm0 227c63 0 89-41 89-101s-29-99-89-99c-61 0-89 39-89 99S79-25 140-24" id="bR"/><g id="U"><use transform="matrix(0.05,0,0,0.05,0,0)" xlink:href="#bu"/><use transform="matrix(0.05,0,0,0.05,10.950000000000001,0)" xlink:href="#bQ"/><use transform="matrix(0.05,0,0,0.05,20.950000000000003,0)" xlink:href="#bR"/><use transform="matrix(0.05,0,0,0.05,34.95,0)" xlink:href="#bH"/><use transform="matrix(0.05,0,0,0.05,45.6,0)" xlink:href="#bF"/></g><path fill="#3a414a" d="M115-194c55 1 70 41 70 98S169 2 115 4C84 4 66-9 55-30l1 105H24l-1-265h31l2 30c10-21 28-34 59-34zm-8 174c40 0 45-34 45-75s-6-73-45-74c-42 0-51 32-51 76 0 43 10 73 51 73" id="bS"/><g id="V"><use transform="matrix(0.05,0,0,0.05,0,0)" xlink:href="#bS"/><use transform="matrix(0.05,0,0,0.05,10,0)" xlink:href="#aS"/><use transform="matrix(0.05,0,0,0.05,20,0)" xlink:href="#bO"/><use transform="matrix(0.05,0,0,0.05,29,0)" xlink:href="#bz"/></g><path fill="#3a414a" d="M96-169c-40 0-48 33-48 73s9 75 48 75c24 0 41-14 43-38l32 2c-6 37-31 61-74 61-59 0-76-41-82-99-10-93 101-131 147-64 4 7 5 14 7 22l-32 3c-4-21-16-35-41-35zm3 187c19-1 33 8 33 26 0 31-30 33-64 32V58c18 2 39 4 41-13 1-15-18-13-34-13L87 0h19" id="bT"/><g id="W"><use transform="matrix(0.05,0,0,0.05,0,0)" xlink:href="#aM"/><use transform="matrix(0.05,0,0,0.05,12,0)" xlink:href="#by"/><use transform="matrix(0.05,0,0,0.05,17.95,0)" xlink:href="#aS"/><use transform="matrix(0.05,0,0,0.05,27.950000000000003,0)" xlink:href="#bO"/><use transform="matrix(0.05,0,0,0.05,36.95,0)" xlink:href="#aS"/><use transform="matrix(0.05,0,0,0.05,46.95,0)" xlink:href="#bv"/><use transform="matrix(0.05,0,0,0.05,56.95,0)" xlink:href="#bT"/><use transform="matrix(0.05,0,0,0.05,65.95,0)" xlink:href="#bN"/><use transform="matrix(0.05,0,0,0.05,75.95,0)" xlink:href="#bO"/></g><path fill="#3a414a" d="M68-38c1 34 0 65-14 84H32c9-13 17-26 17-46H33v-38h35" id="bU"/><g id="X"><use transform="matrix(0.05,0,0,0.05,0,0)" xlink:href="#aM"/><use transform="matrix(0.05,0,0,0.05,12,0)" xlink:href="#aN"/><use transform="matrix(0.05,0,0,0.05,24,0)" xlink:href="#bU"/><use transform="matrix(0.05,0,0,0.05,29,0)" xlink:href="#bu"/><use transform="matrix(0.05,0,0,0.05,39.95,0)" xlink:href="#aN"/></g><g id="Y"><use transform="matrix(0.05,0,0,0.05,0,0)" xlink:href="#bo"/><use transform="matrix(0.05,0,0,0.05,10,0)" xlink:href="#bN"/><use transform="matrix(0.05,0,0,0.05,20,0)" xlink:href="#bB"/><use transform="matrix(0.05,0,0,0.05,25,0)" xlink:href="#bN"/></g></defs></g></svg>